<?xml version="1.0" encoding="UTF-8"?>
<!DOCTYPE svg PUBLIC "-//W3C//DTD SVG 1.1//EN" "http://www.w3.org/Graphics/SVG/1.1/DTD/svg11.dtd">
<!-- Creator: CorelDRAW 2019 (64-Bit) -->
<svg xmlns="http://www.w3.org/2000/svg" xml:space="preserve" width="4.4026mm" height="4.0638mm" version="1.1" style="shape-rendering:geometricPrecision; text-rendering:geometricPrecision; image-rendering:optimizeQuality; fill-rule:evenodd; clip-rule:evenodd"
viewBox="0 0 440.26 406.38"
 xmlns:xlink="http://www.w3.org/1999/xlink"
 xmlns:xodm="http://www.corel.com/coreldraw/odm/2003">
 <defs>
  <style type="text/css">
   <![CDATA[
    .fil0 {fill:#456F82}
   ]]>
  </style>
 </defs>
 <g id="Layer_x0020_1">
  <metadata id="CorelCorpID_0Corel-Layer"/>
  <path class="fil0" d="M220.13 51.94c-22.15,-20.37 -51.15,-31.68 -81.25,-31.68 -15.93,0.02 -31.7,3.18 -46.4,9.32 -14.7,6.14 -28.04,15.11 -39.27,26.43 -47.84,48.04 -47.81,123.19 0.05,171.04l149.08 149.08c3.46,6.08 10.13,10 17.79,10 3.14,-0.03 6.24,-0.79 9.04,-2.24 2.8,-1.45 5.22,-3.52 7.06,-6.08l150.77 -150.76c47.87,-47.87 47.87,-123 -0.04,-171.13 -11.21,-11.28 -24.54,-20.25 -39.23,-26.37 -14.69,-6.12 -30.44,-9.28 -46.35,-9.29 -30.1,0 -59.09,11.31 -81.25,31.68zm138.08 32.74c31.79,31.94 31.81,81.84 0.05,113.62l-138.13 138.11 -138.12 -138.11c-31.76,-31.78 -31.74,-81.68 -0.04,-113.54 15.45,-15.37 35.66,-23.83 56.91,-23.83 21.24,0 41.37,8.46 56.71,23.78l10.16 10.18c1.89,1.89 4.13,3.38 6.6,4.4 2.47,1.03 5.11,1.55 7.78,1.55 2.67,0 5.31,-0.52 7.78,-1.55 2.47,-1.02 4.71,-2.51 6.6,-4.4l10.16 -10.18c30.75,-30.68 82.84,-30.59 113.54,-0.03z"/>
 </g>
</svg>
