<?xml version="1.0" encoding="UTF-8"?>
<!DOCTYPE svg PUBLIC "-//W3C//DTD SVG 1.1//EN" "http://www.w3.org/Graphics/SVG/1.1/DTD/svg11.dtd">
<!-- Creator: CorelDRAW 2019 (64-Bit) -->
<svg xmlns="http://www.w3.org/2000/svg" xml:space="preserve" width="91.44mm" height="91.44mm" version="1.1" style="shape-rendering:geometricPrecision; text-rendering:geometricPrecision; image-rendering:optimizeQuality; fill-rule:evenodd; clip-rule:evenodd"
viewBox="0 0 9144 9144"
 xmlns:xlink="http://www.w3.org/1999/xlink"
 xmlns:xodm="http://www.corel.com/coreldraw/odm/2003">
 <defs>
  <style type="text/css">
   <![CDATA[
    .fil0 {fill:#FFCC99}
    .fil1 {fill:#FFCC99;fill-opacity:0.400000}
   ]]>
  </style>
 </defs>
 <g id="Layer_x0020_1">
  <metadata id="CorelCorpID_0Corel-Layer"/>
  <g id="_3013442184544">
   <path class="fil0" d="M11062.67 3383.08c-132.68,-246.2 -323.55,-478.6 -564.33,-687.07 -485.27,-420.64 -1219.62,-726.36 -1972.04,-768.83 -835.24,-47.06 -1415.02,293.41 -2086.4,537.91 -288.95,105.2 -599.41,182.42 -939.56,189.82 -370.95,7.96 -744.67,-59.44 -1102.18,-150.04 -719.5,-182.46 -1396.6,-448.72 -2145.85,-552.93 -686.38,-94.53 -1380.76,-83.42 -2032.64,32.53 -2140.5,380.91 -4052.67,2283.06 -3001.82,3890.96 535.93,820.05 1736.86,1444.87 2996.04,1556.12 1420.91,125.68 2717.58,-347.5 4137.65,-224.07 714.51,62.12 1389.31,288.16 2059.68,483.84 636.03,185.66 1317.92,364.12 1991.33,309.96 1251.59,-100.43 1871.4,-944.91 2289.58,-1664.2 511.96,-880.85 895.95,-1983.4 370.54,-2954z"/>
   <path class="fil1" d="M-1314.42 2451.61c157.8,-274.66 372.04,-525.37 633.37,-741.24 526.8,-435.65 1289.21,-702.7 2041.96,-655.33 835.58,52.71 1376.41,531.64 2018.42,908.7 276.31,162.24 576.95,294.11 914.46,347.06 368.03,57.61 746.78,26.25 1111.85,-34.72 734.73,-122.85 1436.03,-350.57 2192.1,-376.8 692.55,-22.91 1381.92,80.45 2018.06,302.58 2088.7,729.59 3790.55,3232.96 2576.59,5002.66 -619.1,902.54 -1879.04,1487.3 -3142.98,1455.65 -1426.29,-35.58 -2666.13,-764.93 -4091.33,-803.06 -717.1,-19.16 -1411.93,161.16 -2099.18,306.07 -652.02,137.5 -1348.89,260.51 -2012.92,108.82 -1234.14,-281.62 -1761.85,-1363.26 -2102.17,-2270.28 -416.63,-1110.77 -682.71,-2467.69 -58.23,-3550.11z"/>
  </g>
 </g>
</svg>
