<?xml version="1.0" encoding="UTF-8"?>
<!DOCTYPE svg PUBLIC "-//W3C//DTD SVG 1.1//EN" "http://www.w3.org/Graphics/SVG/1.1/DTD/svg11.dtd">
<!-- Creator: CorelDRAW 2019 (64-Bit) -->
<svg xmlns="http://www.w3.org/2000/svg" xml:space="preserve" width="20px" height="20px" version="1.1" style="shape-rendering:geometricPrecision; text-rendering:geometricPrecision; image-rendering:optimizeQuality; fill-rule:evenodd; clip-rule:evenodd"
viewBox="0 0 20 20"
 xmlns:xlink="http://www.w3.org/1999/xlink"
 xmlns:xodm="http://www.corel.com/coreldraw/odm/2003">
 <defs>
  <style type="text/css">
   <![CDATA[
    .fil0 {fill:#456F82}
   ]]>
  </style>
 </defs>
 <g id="Layer_x0020_1">
  <metadata id="CorelCorpID_0Corel-Layer"/>
  <path class="fil0" d="M10 -9.37c-2.84,-2.61 -6.55,-4.06 -10.41,-4.06 -2.04,0 -4.06,0.41 -5.94,1.19 -1.88,0.79 -3.59,1.94 -5.03,3.39 -6.13,6.15 -6.12,15.78 0.01,21.91l19.09 19.09c0.45,0.78 1.3,1.28 2.28,1.28 0.4,0 0.8,-0.1 1.16,-0.29 0.36,-0.18 0.67,-0.45 0.9,-0.77l19.31 -19.31c6.14,-6.14 6.14,-15.76 0,-21.92 -1.44,-1.45 -3.14,-2.6 -5.02,-3.38 -1.89,-0.79 -3.9,-1.19 -5.94,-1.19 -3.86,0 -7.57,1.45 -10.41,4.06zm17.69 4.19c4.07,4.09 4.07,10.48 0,14.55l-17.69 17.69 -17.69 -17.69c-4.07,-4.07 -4.07,-10.46 -0.01,-14.54 1.98,-1.97 4.57,-3.05 7.29,-3.05 2.73,0 5.3,1.08 7.27,3.04l1.3 1.31c0.24,0.24 0.53,0.43 0.84,0.56 0.32,0.13 0.66,0.2 1,0.2 0.34,0 0.68,-0.07 1,-0.2 0.31,-0.13 0.6,-0.32 0.84,-0.56l1.3 -1.31c3.94,-3.93 10.62,-3.92 14.55,0z"/>
 </g>
</svg>
