<?xml version="1.0" encoding="UTF-8"?>
<!DOCTYPE svg PUBLIC "-//W3C//DTD SVG 1.1//EN" "http://www.w3.org/Graphics/SVG/1.1/DTD/svg11.dtd">
<!-- Creator: CorelDRAW 2019 (64-Bit) -->
<svg xmlns="http://www.w3.org/2000/svg" xml:space="preserve" width="4.4026mm" height="4.0638mm" version="1.1" style="shape-rendering:geometricPrecision; text-rendering:geometricPrecision; image-rendering:optimizeQuality; fill-rule:evenodd; clip-rule:evenodd"
viewBox="0 0 440.26 406.38"
 xmlns:xlink="http://www.w3.org/1999/xlink"
 xmlns:xodm="http://www.corel.com/coreldraw/odm/2003">
 <defs>
  <style type="text/css">
   <![CDATA[
    .fil0 {fill:#9FD1D6}
   ]]>
  </style>
 </defs>
 <g id="Layer_x0020_1">
  <metadata id="CorelCorpID_0Corel-Layer"/>
  <path class="fil0" d="M220.14 45.92c-23.03,-21.18 -53.19,-32.94 -84.48,-32.94 -16.56,0.02 -32.96,3.31 -48.24,9.68 -15.29,6.39 -29.16,15.72 -40.83,27.48 -49.74,49.96 -49.72,128.1 0.05,177.85l155 155.01c3.6,6.31 10.53,10.39 18.5,10.39 3.27,-0.03 6.49,-0.82 9.4,-2.33 2.91,-1.51 5.42,-3.66 7.34,-6.32l156.76 -156.75c49.78,-49.77 49.78,-127.89 -0.04,-177.93 -11.66,-11.74 -25.51,-21.06 -40.79,-27.42 -15.27,-6.36 -31.65,-9.65 -48.19,-9.66 -31.29,0 -61.44,11.76 -84.48,32.94zm143.57 34.03c33.05,33.22 33.07,85.1 0.05,118.14l-143.62 143.61 -143.61 -143.61c-33.03,-33.04 -33,-84.92 -0.04,-118.05 16.07,-15.98 37.08,-24.78 59.17,-24.78 22.09,0 43.02,8.8 58.97,24.73l10.56 10.58c1.97,1.96 4.3,3.52 6.86,4.58 2.57,1.07 5.31,1.61 8.09,1.61 2.78,0 5.52,-0.54 8.09,-1.61 2.56,-1.06 4.89,-2.62 6.86,-4.58l10.57 -10.58c31.96,-31.9 86.13,-31.81 118.05,-0.04z"/>
 </g>
</svg>
