<?xml version="1.0" encoding="UTF-8"?>
<!DOCTYPE svg PUBLIC "-//W3C//DTD SVG 1.1//EN" "http://www.w3.org/Graphics/SVG/1.1/DTD/svg11.dtd">
<!-- Creator: CorelDRAW 2019 (64-Bit) -->
<svg xmlns="http://www.w3.org/2000/svg" xml:space="preserve" width="4.2332mm" height="4.2332mm" version="1.1" style="shape-rendering:geometricPrecision; text-rendering:geometricPrecision; image-rendering:optimizeQuality; fill-rule:evenodd; clip-rule:evenodd"
viewBox="0 0 423.32 423.32"
 xmlns:xlink="http://www.w3.org/1999/xlink"
 xmlns:xodm="http://www.corel.com/coreldraw/odm/2003">
 <defs>
  <style type="text/css">
   <![CDATA[
    .fil0 {fill:#609FCC}
   ]]>
  </style>
 </defs>
 <g id="Layer_x0020_1">
  <metadata id="CorelCorpID_0Corel-Layer"/>
  <g id="_1724342403680">
   <path class="fil0" d="M218.69 280.83c48.64,0 88.2,-39.56 88.2,-88.2 0,-48.64 -39.56,-88.19 -88.2,-88.19 -48.64,0 -88.19,39.55 -88.19,88.19 0,48.64 39.55,88.2 88.19,88.2zm0 -132.29c24.32,0 44.1,19.77 44.1,44.09 0,24.32 -19.78,44.1 -44.1,44.1 -24.32,0 -44.09,-19.78 -44.09,-44.1 0,-24.32 19.77,-44.09 44.09,-44.09z"/>
   <path class="fil0" d="M205.94 453.1c3.73,2.66 8.2,4.09 12.79,4.09 4.58,0 9.06,-1.43 12.79,-4.09 6.7,-4.74 164.24,-118.49 163.6,-260.48 0,-97.26 -79.13,-176.39 -176.39,-176.39 -97.26,0 -176.39,79.13 -176.39,176.28 -0.64,142.1 156.9,255.85 163.6,260.59zm12.79 -392.78c72.96,0 132.29,59.34 132.29,132.41 0.46,97.85 -96.75,185.71 -132.29,214.53 -35.52,-28.84 -132.76,-116.73 -132.29,-214.64 0,-72.96 59.33,-132.3 132.29,-132.3z"/>
  </g>
 </g>
</svg>
