<?xml version="1.0" encoding="UTF-8"?>
<!DOCTYPE svg PUBLIC "-//W3C//DTD SVG 1.1//EN" "http://www.w3.org/Graphics/SVG/1.1/DTD/svg11.dtd">
<!-- Creator: CorelDRAW 2019 (64-Bit) -->
<svg xmlns="http://www.w3.org/2000/svg" xml:space="preserve" width="4.2332mm" height="4.2332mm" version="1.1" style="shape-rendering:geometricPrecision; text-rendering:geometricPrecision; image-rendering:optimizeQuality; fill-rule:evenodd; clip-rule:evenodd"
viewBox="0 0 423.32 423.32"
 xmlns:xlink="http://www.w3.org/1999/xlink"
 xmlns:xodm="http://www.corel.com/coreldraw/odm/2003">
 <defs>
  <style type="text/css">
   <![CDATA[
    .fil0 {fill:#609FCC}
   ]]>
  </style>
 </defs>
 <g id="Layer_x0020_1">
  <metadata id="CorelCorpID_0Corel-Layer"/>
  <path class="fil0" d="M169.34 5.31c-24.02,-22.09 -55.47,-34.35 -88.11,-34.35 -17.27,0.02 -34.37,3.45 -50.31,10.1 -15.94,6.66 -30.41,16.39 -42.58,28.66 -51.88,52.1 -51.85,133.59 0.05,185.48l161.66 161.66c3.75,6.59 10.98,10.84 19.29,10.84 3.41,-0.03 6.77,-0.86 9.8,-2.43 3.04,-1.57 5.66,-3.82 7.66,-6.59l163.49 -163.48c51.91,-51.91 51.91,-133.38 -0.04,-185.57 -12.16,-12.24 -26.61,-21.96 -42.54,-28.6 -15.93,-6.63 -33.01,-10.06 -50.26,-10.07 -32.64,0 -64.08,12.26 -88.11,34.35zm149.73 35.5c34.47,34.64 34.49,88.75 0.05,123.21l-149.78 149.77 -149.78 -149.77c-34.44,-34.46 -34.41,-88.57 -0.04,-123.12 16.76,-16.67 38.67,-25.84 61.71,-25.84 23.04,0 44.87,9.17 61.5,25.79l11.02 11.03c2.05,2.05 4.48,3.67 7.15,4.78 2.68,1.11 5.54,1.68 8.44,1.68 2.9,0 5.76,-0.57 8.44,-1.68 2.67,-1.11 5.1,-2.73 7.15,-4.78l11.02 -11.03c33.34,-33.27 89.83,-33.18 123.12,-0.04z"/>
 </g>
</svg>
