<?xml version="1.0" encoding="UTF-8"?>
<!DOCTYPE svg PUBLIC "-//W3C//DTD SVG 1.1//EN" "http://www.w3.org/Graphics/SVG/1.1/DTD/svg11.dtd">
<!-- Creator: CorelDRAW 2019 (64-Bit) -->
<svg xmlns="http://www.w3.org/2000/svg" xml:space="preserve" width="20px" height="20px" version="1.1" style="shape-rendering:geometricPrecision; text-rendering:geometricPrecision; image-rendering:optimizeQuality; fill-rule:evenodd; clip-rule:evenodd"
viewBox="0 0 20 20"
 xmlns:xlink="http://www.w3.org/1999/xlink"
 xmlns:xodm="http://www.corel.com/coreldraw/odm/2003">
 <defs>
  <style type="text/css">
   <![CDATA[
    .fil0 {fill:#456F82}
   ]]>
  </style>
 </defs>
 <g id="Layer_x0020_1">
  <metadata id="CorelCorpID_0Corel-Layer"/>
  <g id="_1856638801904">
   <path class="fil0" d="M7 15.21c5.75,0 10.42,-4.67 10.42,-10.42 0,-5.74 -4.67,-10.42 -10.42,-10.42 -5.74,0 -10.42,4.68 -10.42,10.42 0,5.75 4.68,10.42 10.42,10.42zm0 -15.63c2.87,0 5.21,2.34 5.21,5.21 0,2.87 -2.34,5.21 -5.21,5.21 -2.87,0 -5.21,-2.34 -5.21,-5.21 0,-2.87 2.34,-5.21 5.21,-5.21z"/>
   <path class="fil0" d="M5.49 35.56c0.44,0.31 0.97,0.48 1.51,0.48 0.54,0 1.07,-0.17 1.51,-0.48 0.79,-0.56 19.4,-14 19.32,-30.77 0,-11.49 -9.34,-20.83 -20.83,-20.83 -11.49,0 -20.84,9.34 -20.84,20.82 -0.07,16.78 18.54,30.22 19.33,30.78zm1.51 -46.39c8.62,0 15.62,7 15.62,15.64 0.06,11.55 -11.42,21.93 -15.62,25.34 -4.2,-3.41 -15.68,-13.79 -15.63,-25.36 0,-8.62 7.01,-15.62 15.63,-15.62z"/>
  </g>
 </g>
</svg>
