<?xml version="1.0" encoding="UTF-8"?>
<!DOCTYPE svg PUBLIC "-//W3C//DTD SVG 1.1//EN" "http://www.w3.org/Graphics/SVG/1.1/DTD/svg11.dtd">
<!-- Creator: CorelDRAW 2019 (64-Bit) -->
<svg xmlns="http://www.w3.org/2000/svg" xml:space="preserve" width="20px" height="20px" version="1.1" style="shape-rendering:geometricPrecision; text-rendering:geometricPrecision; image-rendering:optimizeQuality; fill-rule:evenodd; clip-rule:evenodd"
viewBox="0 0 20 20"
 xmlns:xlink="http://www.w3.org/1999/xlink"
 xmlns:xodm="http://www.corel.com/coreldraw/odm/2003">
 <defs>
  <style type="text/css">
   <![CDATA[
    .fil0 {fill:#456F82}
   ]]>
  </style>
 </defs>
 <g id="Layer_x0020_1">
  <metadata id="CorelCorpID_0Corel-Layer"/>
  <path class="fil0" d="M-13.44 -5.63l0 36.47c0,1.38 0.55,2.7 1.53,3.68 0.97,0.97 2.3,1.52 3.68,1.52l36.46 0c1.38,0 2.71,-0.55 3.68,-1.52 0.98,-0.98 1.53,-2.3 1.53,-3.68l0 -36.47c0,-1.38 -0.55,-2.7 -1.53,-3.68 -0.97,-0.98 -2.3,-1.53 -3.68,-1.53l-5.21 0 0 -5.2 -5.21 0 0 5.2 -15.62 0 0 -5.2 -5.21 0 0 5.2 -5.21 0c-1.38,0 -2.71,0.55 -3.68,1.53 -0.98,0.98 -1.53,2.3 -1.53,3.68l0 0zm41.67 36.47l-36.46 0 0 -31.26 36.46 0 0 31.26z"/>
 </g>
</svg>
