<?xml version="1.0" encoding="UTF-8"?>
<!DOCTYPE svg PUBLIC "-//W3C//DTD SVG 1.1//EN" "http://www.w3.org/Graphics/SVG/1.1/DTD/svg11.dtd">
<!-- Creator: CorelDRAW 2019 (64-Bit) -->
<svg xmlns="http://www.w3.org/2000/svg" xml:space="preserve" width="4.2332mm" height="4.2332mm" version="1.1" style="shape-rendering:geometricPrecision; text-rendering:geometricPrecision; image-rendering:optimizeQuality; fill-rule:evenodd; clip-rule:evenodd"
viewBox="0 0 423.32 423.32"
 xmlns:xlink="http://www.w3.org/1999/xlink"
 xmlns:xodm="http://www.corel.com/coreldraw/odm/2003">
 <defs>
  <style type="text/css">
   <![CDATA[
    .fil0 {fill:#609FCC}
   ]]>
  </style>
 </defs>
 <g id="Layer_x0020_1">
  <metadata id="CorelCorpID_0Corel-Layer"/>
  <path class="fil0" d="M-20.65 3.17l0 308.67c0,11.7 4.65,22.91 12.92,31.18 8.27,8.27 19.48,12.92 31.18,12.92l308.67 0c11.7,0 22.91,-4.65 31.18,-12.92 8.27,-8.27 12.92,-19.48 12.92,-31.18l0 -308.67c0,-11.69 -4.65,-22.91 -12.92,-31.18 -8.27,-8.27 -19.48,-12.92 -31.18,-12.92l-44.1 0 0 -44.09 -44.09 0 0 44.09 -132.29 0 0 -44.09 -44.09 0 0 44.09 -44.1 0c-11.7,0 -22.91,4.65 -31.18,12.92 -8.27,8.27 -12.92,19.49 -12.92,31.18zm352.77 308.67l-308.67 0 0 -264.57 308.67 0 0 264.57z"/>
 </g>
</svg>
